<svg xmlns="http://www.w3.org/2000/svg" width="100" height="140" viewBox="0 0 100 140">

  <defs>
    <linearGradient id="cg_u22" x1="0" y1="0" x2="1" y2="1" gradientUnits="objectBoundingBox">
      <stop offset="0%"   stop-color="#fdfaf2"/>
      <stop offset="55%"  stop-color="#f5ecd7"/>
      <stop offset="100%" stop-color="#e8d9b0"/>
    </linearGradient>
  </defs>
  <rect x="0"   y="0"   width="100"    height="140"    rx="10" fill="url(#cg_u22)"/>
  <rect x="0"   y="0"   width="100"    height="140"    rx="10" fill="none" stroke="#c9a24a" stroke-width="0.6" stroke-opacity="0.4"/>
  <rect x="5" y="5" width="90" height="130" rx="7"    fill="none" stroke="#c9a24a" stroke-width="0.6" stroke-opacity="0.5"/>
    <g>
    <text x="7" y="22" font-family="'Cormorant Garamond',Georgia,serif" font-weight="bold" font-size="13" fill="#9e2a2b">10</text>
    <text x="11"     y="35" font-size="13" fill="#9e2a2b">♥</text>
  </g>
  <text x="30" y="26.6" font-size="15" fill="#9e2a2b" text-anchor="middle" dominant-baseline="middle">♥</text>
  <text x="70" y="26.6" font-size="15" fill="#9e2a2b" text-anchor="middle" dominant-baseline="middle">♥</text>
  <text x="50" y="42" font-size="15" fill="#9e2a2b" text-anchor="middle" dominant-baseline="middle">♥</text>
  <text x="30" y="51.8" font-size="15" fill="#9e2a2b" text-anchor="middle" dominant-baseline="middle">♥</text>
  <text x="70" y="51.8" font-size="15" fill="#9e2a2b" text-anchor="middle" dominant-baseline="middle">♥</text>
  <text x="30" y="88.2" font-size="15" fill="#9e2a2b" text-anchor="middle" dominant-baseline="middle" transform="rotate(180,30,88.2)">♥</text>
  <text x="70" y="88.2" font-size="15" fill="#9e2a2b" text-anchor="middle" dominant-baseline="middle" transform="rotate(180,70,88.2)">♥</text>
  <text x="50" y="98" font-size="15" fill="#9e2a2b" text-anchor="middle" dominant-baseline="middle" transform="rotate(180,50,98)">♥</text>
  <text x="30" y="113.4" font-size="15" fill="#9e2a2b" text-anchor="middle" dominant-baseline="middle" transform="rotate(180,30,113.4)">♥</text>
  <text x="70" y="113.4" font-size="15" fill="#9e2a2b" text-anchor="middle" dominant-baseline="middle" transform="rotate(180,70,113.4)">♥</text>
    <g transform="rotate(180,50,70)">
    <text x="7" y="22" font-family="'Cormorant Garamond',Georgia,serif" font-weight="bold" font-size="13" fill="#9e2a2b">10</text>
    <text x="11"     y="35" font-size="13" fill="#9e2a2b">♥</text>
  </g>
</svg>