<svg xmlns="http://www.w3.org/2000/svg" width="784" height="140" viewBox="0 0 784 140">

  <defs>
    <linearGradient id="cg_u54" x1="0" y1="0" x2="1" y2="1" gradientUnits="objectBoundingBox">
      <stop offset="0%"   stop-color="#fdfaf2"/>
      <stop offset="55%"  stop-color="#f5ecd7"/>
      <stop offset="100%" stop-color="#e8d9b0"/>
    </linearGradient>
  </defs>
  <rect x="0"   y="0"   width="100"    height="140"    rx="10" fill="url(#cg_u54)"/>
  <rect x="0"   y="0"   width="100"    height="140"    rx="10" fill="none" stroke="#c9a24a" stroke-width="0.6" stroke-opacity="0.4"/>
  <rect x="5" y="5" width="90" height="130" rx="7"    fill="none" stroke="#c9a24a" stroke-width="0.6" stroke-opacity="0.5"/>
    <g>
    <text x="9" y="22" font-family="'Cormorant Garamond',Georgia,serif" font-weight="bold" font-size="16" fill="#9e2a2b">4</text>
    <text x="11"     y="35" font-size="13" fill="#9e2a2b">♥</text>
  </g>
  <text x="30" y="26.6" font-size="15" fill="#9e2a2b" text-anchor="middle" dominant-baseline="middle">♥</text>
  <text x="70" y="26.6" font-size="15" fill="#9e2a2b" text-anchor="middle" dominant-baseline="middle">♥</text>
  <text x="30" y="113.4" font-size="15" fill="#9e2a2b" text-anchor="middle" dominant-baseline="middle" transform="rotate(180,30,113.4)">♥</text>
  <text x="70" y="113.4" font-size="15" fill="#9e2a2b" text-anchor="middle" dominant-baseline="middle" transform="rotate(180,70,113.4)">♥</text>
    <g transform="rotate(180,50,70)">
    <text x="9" y="22" font-family="'Cormorant Garamond',Georgia,serif" font-weight="bold" font-size="16" fill="#9e2a2b">4</text>
    <text x="11"     y="35" font-size="13" fill="#9e2a2b">♥</text>
  </g>

  <defs>
    <linearGradient id="cg_u55" x1="0" y1="0" x2="1" y2="1" gradientUnits="objectBoundingBox">
      <stop offset="0%"   stop-color="#fdfaf2"/>
      <stop offset="55%"  stop-color="#f5ecd7"/>
      <stop offset="100%" stop-color="#e8d9b0"/>
    </linearGradient>
  </defs>
  <rect x="114"   y="0"   width="100"    height="140"    rx="10" fill="url(#cg_u55)"/>
  <rect x="114"   y="0"   width="100"    height="140"    rx="10" fill="none" stroke="#c9a24a" stroke-width="0.6" stroke-opacity="0.4"/>
  <rect x="119" y="5" width="90" height="130" rx="7"    fill="none" stroke="#c9a24a" stroke-width="0.6" stroke-opacity="0.5"/>
    <g>
    <text x="123" y="22" font-family="'Cormorant Garamond',Georgia,serif" font-weight="bold" font-size="16" fill="#1a1410">5</text>
    <text x="125"     y="35" font-size="13" fill="#1a1410">♠</text>
  </g>
  <text x="144" y="26.6" font-size="15" fill="#1a1410" text-anchor="middle" dominant-baseline="middle">♠</text>
  <text x="184" y="26.6" font-size="15" fill="#1a1410" text-anchor="middle" dominant-baseline="middle">♠</text>
  <text x="164" y="70" font-size="15" fill="#1a1410" text-anchor="middle" dominant-baseline="middle">♠</text>
  <text x="144" y="113.4" font-size="15" fill="#1a1410" text-anchor="middle" dominant-baseline="middle" transform="rotate(180,144,113.4)">♠</text>
  <text x="184" y="113.4" font-size="15" fill="#1a1410" text-anchor="middle" dominant-baseline="middle" transform="rotate(180,184,113.4)">♠</text>
    <g transform="rotate(180,164,70)">
    <text x="123" y="22" font-family="'Cormorant Garamond',Georgia,serif" font-weight="bold" font-size="16" fill="#1a1410">5</text>
    <text x="125"     y="35" font-size="13" fill="#1a1410">♠</text>
  </g>

  <defs>
    <linearGradient id="cg_u56" x1="0" y1="0" x2="1" y2="1" gradientUnits="objectBoundingBox">
      <stop offset="0%"   stop-color="#fdfaf2"/>
      <stop offset="55%"  stop-color="#f5ecd7"/>
      <stop offset="100%" stop-color="#e8d9b0"/>
    </linearGradient>
  </defs>
  <rect x="228"   y="0"   width="100"    height="140"    rx="10" fill="url(#cg_u56)"/>
  <rect x="228"   y="0"   width="100"    height="140"    rx="10" fill="none" stroke="#c9a24a" stroke-width="0.6" stroke-opacity="0.4"/>
  <rect x="233" y="5" width="90" height="130" rx="7"    fill="none" stroke="#c9a24a" stroke-width="0.6" stroke-opacity="0.5"/>
    <g>
    <text x="237" y="22" font-family="'Cormorant Garamond',Georgia,serif" font-weight="bold" font-size="16" fill="#9e2a2b">6</text>
    <text x="239"     y="35" font-size="13" fill="#9e2a2b">♦</text>
  </g>
  <text x="258" y="26.6" font-size="15" fill="#9e2a2b" text-anchor="middle" dominant-baseline="middle">♦</text>
  <text x="298" y="26.6" font-size="15" fill="#9e2a2b" text-anchor="middle" dominant-baseline="middle">♦</text>
  <text x="258" y="70" font-size="15" fill="#9e2a2b" text-anchor="middle" dominant-baseline="middle">♦</text>
  <text x="298" y="70" font-size="15" fill="#9e2a2b" text-anchor="middle" dominant-baseline="middle">♦</text>
  <text x="258" y="113.4" font-size="15" fill="#9e2a2b" text-anchor="middle" dominant-baseline="middle" transform="rotate(180,258,113.4)">♦</text>
  <text x="298" y="113.4" font-size="15" fill="#9e2a2b" text-anchor="middle" dominant-baseline="middle" transform="rotate(180,298,113.4)">♦</text>
    <g transform="rotate(180,278,70)">
    <text x="237" y="22" font-family="'Cormorant Garamond',Georgia,serif" font-weight="bold" font-size="16" fill="#9e2a2b">6</text>
    <text x="239"     y="35" font-size="13" fill="#9e2a2b">♦</text>
  </g>

  <defs>
    <linearGradient id="cg_u57" x1="0" y1="0" x2="1" y2="1" gradientUnits="objectBoundingBox">
      <stop offset="0%"   stop-color="#fdfaf2"/>
      <stop offset="55%"  stop-color="#f5ecd7"/>
      <stop offset="100%" stop-color="#e8d9b0"/>
    </linearGradient>
  </defs>
  <rect x="342"   y="0"   width="100"    height="140"    rx="10" fill="url(#cg_u57)"/>
  <rect x="342"   y="0"   width="100"    height="140"    rx="10" fill="none" stroke="#c9a24a" stroke-width="0.6" stroke-opacity="0.4"/>
  <rect x="347" y="5" width="90" height="130" rx="7"    fill="none" stroke="#c9a24a" stroke-width="0.6" stroke-opacity="0.5"/>
    <g>
    <text x="351" y="22" font-family="'Cormorant Garamond',Georgia,serif" font-weight="bold" font-size="16" fill="#1a1410">7</text>
    <text x="353"     y="35" font-size="13" fill="#1a1410">♣</text>
  </g>
  <text x="372" y="26.6" font-size="15" fill="#1a1410" text-anchor="middle" dominant-baseline="middle">♣</text>
  <text x="412" y="26.6" font-size="15" fill="#1a1410" text-anchor="middle" dominant-baseline="middle">♣</text>
  <text x="392" y="47.6" font-size="15" fill="#1a1410" text-anchor="middle" dominant-baseline="middle">♣</text>
  <text x="372" y="70" font-size="15" fill="#1a1410" text-anchor="middle" dominant-baseline="middle">♣</text>
  <text x="412" y="70" font-size="15" fill="#1a1410" text-anchor="middle" dominant-baseline="middle">♣</text>
  <text x="372" y="113.4" font-size="15" fill="#1a1410" text-anchor="middle" dominant-baseline="middle" transform="rotate(180,372,113.4)">♣</text>
  <text x="412" y="113.4" font-size="15" fill="#1a1410" text-anchor="middle" dominant-baseline="middle" transform="rotate(180,412,113.4)">♣</text>
    <g transform="rotate(180,392,70)">
    <text x="351" y="22" font-family="'Cormorant Garamond',Georgia,serif" font-weight="bold" font-size="16" fill="#1a1410">7</text>
    <text x="353"     y="35" font-size="13" fill="#1a1410">♣</text>
  </g>

  <defs>
    <linearGradient id="cg_u58" x1="0" y1="0" x2="1" y2="1" gradientUnits="objectBoundingBox">
      <stop offset="0%"   stop-color="#fdfaf2"/>
      <stop offset="55%"  stop-color="#f5ecd7"/>
      <stop offset="100%" stop-color="#e8d9b0"/>
    </linearGradient>
  </defs>
  <rect x="456"   y="0"   width="100"    height="140"    rx="10" fill="url(#cg_u58)"/>
  <rect x="456"   y="0"   width="100"    height="140"    rx="10" fill="none" stroke="#c9a24a" stroke-width="0.6" stroke-opacity="0.4"/>
  <rect x="461" y="5" width="90" height="130" rx="7"    fill="none" stroke="#c9a24a" stroke-width="0.6" stroke-opacity="0.5"/>
    <g>
    <text x="465" y="22" font-family="'Cormorant Garamond',Georgia,serif" font-weight="bold" font-size="16" fill="#9e2a2b">9</text>
    <text x="467"     y="35" font-size="13" fill="#9e2a2b">♥</text>
  </g>
  <text x="486" y="26.6" font-size="15" fill="#9e2a2b" text-anchor="middle" dominant-baseline="middle">♥</text>
  <text x="526" y="26.6" font-size="15" fill="#9e2a2b" text-anchor="middle" dominant-baseline="middle">♥</text>
  <text x="486" y="49" font-size="15" fill="#9e2a2b" text-anchor="middle" dominant-baseline="middle">♥</text>
  <text x="526" y="49" font-size="15" fill="#9e2a2b" text-anchor="middle" dominant-baseline="middle">♥</text>
  <text x="506" y="70" font-size="15" fill="#9e2a2b" text-anchor="middle" dominant-baseline="middle">♥</text>
  <text x="486" y="91" font-size="15" fill="#9e2a2b" text-anchor="middle" dominant-baseline="middle" transform="rotate(180,486,91)">♥</text>
  <text x="526" y="91" font-size="15" fill="#9e2a2b" text-anchor="middle" dominant-baseline="middle" transform="rotate(180,526,91)">♥</text>
  <text x="486" y="113.4" font-size="15" fill="#9e2a2b" text-anchor="middle" dominant-baseline="middle" transform="rotate(180,486,113.4)">♥</text>
  <text x="526" y="113.4" font-size="15" fill="#9e2a2b" text-anchor="middle" dominant-baseline="middle" transform="rotate(180,526,113.4)">♥</text>
    <g transform="rotate(180,506,70)">
    <text x="465" y="22" font-family="'Cormorant Garamond',Georgia,serif" font-weight="bold" font-size="16" fill="#9e2a2b">9</text>
    <text x="467"     y="35" font-size="13" fill="#9e2a2b">♥</text>
  </g>

  <defs>
    <linearGradient id="cg_u59" x1="0" y1="0" x2="1" y2="1" gradientUnits="objectBoundingBox">
      <stop offset="0%"   stop-color="#fdfaf2"/>
      <stop offset="55%"  stop-color="#f5ecd7"/>
      <stop offset="100%" stop-color="#e8d9b0"/>
    </linearGradient>
  </defs>
  <rect x="570"   y="0"   width="100"    height="140"    rx="10" fill="url(#cg_u59)"/>
  <rect x="570"   y="0"   width="100"    height="140"    rx="10" fill="none" stroke="#c9a24a" stroke-width="0.6" stroke-opacity="0.4"/>
  <rect x="575" y="5" width="90" height="130" rx="7"    fill="none" stroke="#c9a24a" stroke-width="0.6" stroke-opacity="0.5"/>
    <g>
    <text x="577" y="22" font-family="'Cormorant Garamond',Georgia,serif" font-weight="bold" font-size="13" fill="#1a1410">10</text>
    <text x="581"     y="35" font-size="13" fill="#1a1410">♠</text>
  </g>
  <text x="600" y="26.6" font-size="15" fill="#1a1410" text-anchor="middle" dominant-baseline="middle">♠</text>
  <text x="640" y="26.6" font-size="15" fill="#1a1410" text-anchor="middle" dominant-baseline="middle">♠</text>
  <text x="620" y="42" font-size="15" fill="#1a1410" text-anchor="middle" dominant-baseline="middle">♠</text>
  <text x="600" y="51.8" font-size="15" fill="#1a1410" text-anchor="middle" dominant-baseline="middle">♠</text>
  <text x="640" y="51.8" font-size="15" fill="#1a1410" text-anchor="middle" dominant-baseline="middle">♠</text>
  <text x="600" y="88.2" font-size="15" fill="#1a1410" text-anchor="middle" dominant-baseline="middle" transform="rotate(180,600,88.2)">♠</text>
  <text x="640" y="88.2" font-size="15" fill="#1a1410" text-anchor="middle" dominant-baseline="middle" transform="rotate(180,640,88.2)">♠</text>
  <text x="620" y="98" font-size="15" fill="#1a1410" text-anchor="middle" dominant-baseline="middle" transform="rotate(180,620,98)">♠</text>
  <text x="600" y="113.4" font-size="15" fill="#1a1410" text-anchor="middle" dominant-baseline="middle" transform="rotate(180,600,113.4)">♠</text>
  <text x="640" y="113.4" font-size="15" fill="#1a1410" text-anchor="middle" dominant-baseline="middle" transform="rotate(180,640,113.4)">♠</text>
    <g transform="rotate(180,620,70)">
    <text x="577" y="22" font-family="'Cormorant Garamond',Georgia,serif" font-weight="bold" font-size="13" fill="#1a1410">10</text>
    <text x="581"     y="35" font-size="13" fill="#1a1410">♠</text>
  </g>

  <defs>
    <linearGradient id="cg_u60" x1="0" y1="0" x2="1" y2="1" gradientUnits="objectBoundingBox">
      <stop offset="0%"   stop-color="#fdfaf2"/>
      <stop offset="55%"  stop-color="#f5ecd7"/>
      <stop offset="100%" stop-color="#e8d9b0"/>
    </linearGradient>
  </defs>
  <rect x="684"   y="0"   width="100"    height="140"    rx="10" fill="url(#cg_u60)"/>
  <rect x="684"   y="0"   width="100"    height="140"    rx="10" fill="none" stroke="#c9a24a" stroke-width="0.6" stroke-opacity="0.4"/>
  <rect x="689" y="5" width="90" height="130" rx="7"    fill="none" stroke="#c9a24a" stroke-width="0.6" stroke-opacity="0.5"/>
    <g>
    <text x="693" y="22" font-family="'Cormorant Garamond',Georgia,serif" font-weight="bold" font-size="16" fill="#9e2a2b">A</text>
    <text x="695"     y="35" font-size="13" fill="#9e2a2b">♦</text>
  </g>
  <text x="734" y="70" font-size="50" fill="#9e2a2b" text-anchor="middle" dominant-baseline="middle">♦</text>
    <g transform="rotate(180,734,70)">
    <text x="693" y="22" font-family="'Cormorant Garamond',Georgia,serif" font-weight="bold" font-size="16" fill="#9e2a2b">A</text>
    <text x="695"     y="35" font-size="13" fill="#9e2a2b">♦</text>
  </g>
</svg>