<svg xmlns="http://www.w3.org/2000/svg" width="442" height="140" viewBox="0 0 442 140">

  <defs>
    <linearGradient id="cg_u69" x1="0" y1="0" x2="1" y2="1" gradientUnits="objectBoundingBox">
      <stop offset="0%"   stop-color="#fdfaf2"/>
      <stop offset="55%"  stop-color="#f5ecd7"/>
      <stop offset="100%" stop-color="#e8d9b0"/>
    </linearGradient>
  </defs>
  <rect x="0"   y="0"   width="100"    height="140"    rx="10" fill="url(#cg_u69)"/>
  <rect x="0"   y="0"   width="100"    height="140"    rx="10" fill="none" stroke="#c9a24a" stroke-width="0.6" stroke-opacity="0.4"/>
  <rect x="5" y="5" width="90" height="130" rx="7"    fill="none" stroke="#c9a24a" stroke-width="0.6" stroke-opacity="0.5"/>
    <g>
    <text x="9" y="22" font-family="'Cormorant Garamond',Georgia,serif" font-weight="bold" font-size="16" fill="#1a1410">K</text>
    <text x="11"     y="35" font-size="13" fill="#1a1410">♠</text>
  </g>
  <rect x="16" y="40" width="68" height="85" rx="4" fill="none" stroke="#c9a24a" stroke-width="0.6" stroke-opacity="0.45"/>
  <rect x="16" y="40" width="68" height="85" rx="4" fill="#c9a24a" fill-opacity="0.03"/>
  <text x="20" y="52" font-size="8" fill="#c9a24a" fill-opacity="0.6">❦</text>
  <text x="86" y="52" font-size="8" fill="#c9a24a" fill-opacity="0.6" transform="rotate(180,89,49)">❦</text>
  <text x="50" y="66"  font-family="'Cormorant Garamond',Georgia,serif" font-weight="bold" font-size="36" fill="#1a1410" text-anchor="middle" dominant-baseline="middle">K</text>
  <text x="50" y="92" font-size="18" fill="#1a1410" text-anchor="middle">♠</text>
    <g transform="rotate(180,50,70)">
    <text x="9" y="22" font-family="'Cormorant Garamond',Georgia,serif" font-weight="bold" font-size="16" fill="#1a1410">K</text>
    <text x="11"     y="35" font-size="13" fill="#1a1410">♠</text>
  </g>

  <defs>
    <linearGradient id="cg_u70" x1="0" y1="0" x2="1" y2="1" gradientUnits="objectBoundingBox">
      <stop offset="0%"   stop-color="#fdfaf2"/>
      <stop offset="55%"  stop-color="#f5ecd7"/>
      <stop offset="100%" stop-color="#e8d9b0"/>
    </linearGradient>
  </defs>
  <rect x="114"   y="0"   width="100"    height="140"    rx="10" fill="url(#cg_u70)"/>
  <rect x="114"   y="0"   width="100"    height="140"    rx="10" fill="none" stroke="#c9a24a" stroke-width="0.6" stroke-opacity="0.4"/>
  <rect x="119" y="5" width="90" height="130" rx="7"    fill="none" stroke="#c9a24a" stroke-width="0.6" stroke-opacity="0.5"/>
    <g>
    <text x="123" y="22" font-family="'Cormorant Garamond',Georgia,serif" font-weight="bold" font-size="16" fill="#9e2a2b">K</text>
    <text x="125"     y="35" font-size="13" fill="#9e2a2b">♥</text>
  </g>
  <rect x="130" y="40" width="68" height="85" rx="4" fill="none" stroke="#c9a24a" stroke-width="0.6" stroke-opacity="0.45"/>
  <rect x="130" y="40" width="68" height="85" rx="4" fill="#c9a24a" fill-opacity="0.03"/>
  <text x="134" y="52" font-size="8" fill="#c9a24a" fill-opacity="0.6">❦</text>
  <text x="200" y="52" font-size="8" fill="#c9a24a" fill-opacity="0.6" transform="rotate(180,203,49)">❦</text>
  <text x="164" y="66"  font-family="'Cormorant Garamond',Georgia,serif" font-weight="bold" font-size="36" fill="#9e2a2b" text-anchor="middle" dominant-baseline="middle">K</text>
  <text x="164" y="92" font-size="18" fill="#9e2a2b" text-anchor="middle">♥</text>
    <g transform="rotate(180,164,70)">
    <text x="123" y="22" font-family="'Cormorant Garamond',Georgia,serif" font-weight="bold" font-size="16" fill="#9e2a2b">K</text>
    <text x="125"     y="35" font-size="13" fill="#9e2a2b">♥</text>
  </g>

  <defs>
    <linearGradient id="cg_u71" x1="0" y1="0" x2="1" y2="1" gradientUnits="objectBoundingBox">
      <stop offset="0%"   stop-color="#fdfaf2"/>
      <stop offset="55%"  stop-color="#f5ecd7"/>
      <stop offset="100%" stop-color="#e8d9b0"/>
    </linearGradient>
  </defs>
  <rect x="228"   y="0"   width="100"    height="140"    rx="10" fill="url(#cg_u71)"/>
  <rect x="228"   y="0"   width="100"    height="140"    rx="10" fill="none" stroke="#c9a24a" stroke-width="0.6" stroke-opacity="0.4"/>
  <rect x="233" y="5" width="90" height="130" rx="7"    fill="none" stroke="#c9a24a" stroke-width="0.6" stroke-opacity="0.5"/>
    <g>
    <text x="237" y="22" font-family="'Cormorant Garamond',Georgia,serif" font-weight="bold" font-size="16" fill="#9e2a2b">K</text>
    <text x="239"     y="35" font-size="13" fill="#9e2a2b">♦</text>
  </g>
  <rect x="244" y="40" width="68" height="85" rx="4" fill="none" stroke="#c9a24a" stroke-width="0.6" stroke-opacity="0.45"/>
  <rect x="244" y="40" width="68" height="85" rx="4" fill="#c9a24a" fill-opacity="0.03"/>
  <text x="248" y="52" font-size="8" fill="#c9a24a" fill-opacity="0.6">❦</text>
  <text x="314" y="52" font-size="8" fill="#c9a24a" fill-opacity="0.6" transform="rotate(180,317,49)">❦</text>
  <text x="278" y="66"  font-family="'Cormorant Garamond',Georgia,serif" font-weight="bold" font-size="36" fill="#9e2a2b" text-anchor="middle" dominant-baseline="middle">K</text>
  <text x="278" y="92" font-size="18" fill="#9e2a2b" text-anchor="middle">♦</text>
    <g transform="rotate(180,278,70)">
    <text x="237" y="22" font-family="'Cormorant Garamond',Georgia,serif" font-weight="bold" font-size="16" fill="#9e2a2b">K</text>
    <text x="239"     y="35" font-size="13" fill="#9e2a2b">♦</text>
  </g>

  <defs>
    <linearGradient id="cg_u72" x1="0" y1="0" x2="1" y2="1" gradientUnits="objectBoundingBox">
      <stop offset="0%"   stop-color="#fdfaf2"/>
      <stop offset="55%"  stop-color="#f5ecd7"/>
      <stop offset="100%" stop-color="#e8d9b0"/>
    </linearGradient>
  </defs>
  <rect x="342"   y="0"   width="100"    height="140"    rx="10" fill="url(#cg_u72)"/>
  <rect x="342"   y="0"   width="100"    height="140"    rx="10" fill="none" stroke="#c9a24a" stroke-width="0.6" stroke-opacity="0.4"/>
  <rect x="347" y="5" width="90" height="130" rx="7"    fill="none" stroke="#c9a24a" stroke-width="0.6" stroke-opacity="0.5"/>
    <g>
    <text x="351" y="22" font-family="'Cormorant Garamond',Georgia,serif" font-weight="bold" font-size="16" fill="#1a1410">K</text>
    <text x="353"     y="35" font-size="13" fill="#1a1410">♣</text>
  </g>
  <rect x="358" y="40" width="68" height="85" rx="4" fill="none" stroke="#c9a24a" stroke-width="0.6" stroke-opacity="0.45"/>
  <rect x="358" y="40" width="68" height="85" rx="4" fill="#c9a24a" fill-opacity="0.03"/>
  <text x="362" y="52" font-size="8" fill="#c9a24a" fill-opacity="0.6">❦</text>
  <text x="428" y="52" font-size="8" fill="#c9a24a" fill-opacity="0.6" transform="rotate(180,431,49)">❦</text>
  <text x="392" y="66"  font-family="'Cormorant Garamond',Georgia,serif" font-weight="bold" font-size="36" fill="#1a1410" text-anchor="middle" dominant-baseline="middle">K</text>
  <text x="392" y="92" font-size="18" fill="#1a1410" text-anchor="middle">♣</text>
    <g transform="rotate(180,392,70)">
    <text x="351" y="22" font-family="'Cormorant Garamond',Georgia,serif" font-weight="bold" font-size="16" fill="#1a1410">K</text>
    <text x="353"     y="35" font-size="13" fill="#1a1410">♣</text>
  </g>
</svg>